<svg width="124" height="30" viewBox="0 0 124 30" fill="none" xmlns="http://www.w3.org/2000/svg">
<path d="M12.3791 8.283L13.2061 7.435C13.5862 7.03747 14.0421 6.72017 14.547 6.50183C15.0518 6.28349 15.5953 6.16855 16.1453 6.16379C16.6953 6.15904 17.2407 6.26457 17.7492 6.47415C18.2577 6.68373 18.7191 6.9931 19.1061 7.384C19.7277 8.01851 20.1384 8.82941 20.2821 9.706C20.4279 10.5862 20.3013 11.4899 19.9191 12.296C19.736 12.6812 19.6747 13.113 19.7431 13.534C19.8104 13.9535 20.0053 14.3421 20.3011 14.647C20.8454 14.0878 21.2754 13.4278 21.5671 12.704C22.1574 11.2336 22.1552 9.59181 21.5611 8.123C21.2685 7.40007 20.8378 6.74111 20.2931 6.183C19.7528 5.63294 19.1075 5.19699 18.3955 4.90102C17.6835 4.60505 16.9194 4.45509 16.1483 4.46003C15.3773 4.46498 14.6151 4.62472 13.907 4.9298C13.1989 5.23487 12.5593 5.67905 12.0261 6.236L4.14006 14.321L3.49206 13.659C2.6929 12.8377 2.24733 11.736 2.25088 10.5901C2.25443 9.44421 2.70683 8.3453 3.51106 7.529C4.1277 6.91777 4.92129 6.51643 5.77906 6.382C6.63469 6.24934 7.51032 6.3926 8.27906 6.791C8.62963 6.97584 9.03065 7.04215 9.42206 6.98C9.81476 6.91677 10.1768 6.72925 10.4551 6.445L10.4751 6.424C10.4814 6.41771 10.4865 6.41024 10.4901 6.402C10.497 6.38502 10.497 6.36599 10.4901 6.349C10.4842 6.33998 10.4763 6.33244 10.4671 6.327C9.93665 5.79082 9.30556 5.36469 8.61001 5.07307C7.91446 4.78145 7.16817 4.63009 6.41397 4.62767C5.65976 4.62526 4.91251 4.77183 4.21511 5.05899C3.51771 5.34615 2.8839 5.76823 2.35006 6.301C1.22519 7.44182 0.591912 8.97786 0.58593 10.58C0.579949 12.1821 1.20174 13.7228 2.31806 14.872L10.2021 22.959L9.36506 23.818C8.98493 24.2155 8.52898 24.5328 8.02415 24.7512C7.51931 24.9695 6.97584 25.0845 6.42583 25.0892C5.87583 25.094 5.33045 24.9884 4.82191 24.7789C4.31338 24.5693 3.85201 24.2599 3.46506 23.869C2.8434 23.2345 2.43272 22.4236 2.28906 21.547C2.14328 20.6668 2.26994 19.7632 2.65206 18.957C2.83542 18.5719 2.89716 18.1401 2.82906 17.719C2.76136 17.2976 2.56506 16.9075 2.26706 16.602C1.72523 17.1618 1.29761 17.8217 1.00806 18.545C0.41777 20.0154 0.41992 21.6572 1.01406 23.126C1.30663 23.8489 1.73733 24.5079 2.28206 25.066C2.82237 25.6161 3.46765 26.052 4.17962 26.348C4.89159 26.644 5.65576 26.7939 6.42678 26.789C7.1978 26.784 7.95998 26.6243 8.6681 26.3192C9.37622 26.0141 10.0159 25.57 10.5491 25.013L18.4401 16.913L19.0901 17.58C19.8759 18.3886 20.3196 19.469 20.3289 20.5965C20.3383 21.7239 19.9124 22.8116 19.1401 23.633C18.5327 24.265 17.7403 24.6877 16.8771 24.84C16.0173 24.9896 15.1322 24.8592 14.3521 24.468C13.9794 24.2803 13.5564 24.2168 13.1451 24.287C12.732 24.3581 12.3522 24.5584 12.0601 24.859C12.5988 25.4138 13.2427 25.8557 13.9541 26.159C14.6605 26.4584 15.42 26.6121 16.1873 26.6109C16.9545 26.6097 17.7136 26.4536 18.4191 26.152C19.1294 25.8483 19.7722 25.4064 20.3101 24.852C21.3976 23.7047 21.9995 22.1815 21.99 20.6007C21.9805 19.02 21.3603 17.5041 20.2591 16.37L12.3791 8.283ZM11.3791 21.748L5.31706 15.529L11.2021 9.491L17.2671 15.71L11.3791 21.748Z" fill="#007FFF"/>
<path d="M30.5921 23.478V6.02345H34.2825V13.7195H34.5126L40.7938 6.02345H45.2171L38.7398 13.8388L45.2938 23.478H40.8791L36.0978 16.3019L34.2825 18.5178V23.478H30.5921ZM50.8038 23.7252C49.9685 23.7252 49.2242 23.5803 48.5708 23.2905C47.9174 22.995 47.4004 22.5604 47.0197 21.9865C46.6447 21.407 46.4572 20.6854 46.4572 19.8218C46.4572 19.0945 46.5907 18.4837 46.8577 17.9894C47.1248 17.495 47.4884 17.0973 47.9487 16.7962C48.4089 16.495 48.9316 16.2678 49.5168 16.1144C50.1077 15.961 50.7271 15.853 51.3748 15.7905C52.1362 15.711 52.7498 15.6371 53.2157 15.5689C53.6816 15.495 54.0197 15.3871 54.2299 15.245C54.4401 15.103 54.5452 14.8928 54.5452 14.6144V14.5632C54.5452 14.0235 54.3748 13.6058 54.0339 13.3104C53.6987 13.0149 53.2214 12.8672 52.6021 12.8672C51.9487 12.8672 51.4288 13.0121 51.0424 13.3019C50.656 13.586 50.4004 13.9439 50.2754 14.3757L46.9174 14.103C47.0879 13.3075 47.4231 12.62 47.9231 12.0405C48.4231 11.4553 49.068 11.0064 49.8577 10.6939C50.6532 10.3757 51.5737 10.2166 52.6191 10.2166C53.3464 10.2166 54.0424 10.3019 54.7072 10.4723C55.3776 10.6428 55.9714 10.907 56.4884 11.2649C57.0112 11.6229 57.4231 12.0831 57.7242 12.6456C58.0254 13.2024 58.1759 13.87 58.1759 14.6485V23.478H54.7327V21.6627H54.6305C54.4202 22.0718 54.139 22.4325 53.7867 22.745C53.4344 23.0519 53.0112 23.2933 52.5168 23.4695C52.0225 23.6399 51.4515 23.7252 50.8038 23.7252ZM51.8435 21.2195C52.3776 21.2195 52.8492 21.1144 53.2583 20.9041C53.6674 20.6882 53.9884 20.3985 54.2214 20.0348C54.4543 19.6712 54.5708 19.2593 54.5708 18.799V17.4098C54.4572 17.4837 54.3009 17.5519 54.1021 17.6144C53.9089 17.6712 53.6901 17.7252 53.4458 17.7763C53.2015 17.8218 52.9572 17.8644 52.7129 17.9041C52.4685 17.9382 52.2469 17.9695 52.0481 17.9979C51.6219 18.0604 51.2498 18.1598 50.9316 18.2962C50.6134 18.4325 50.3663 18.6172 50.1901 18.8502C50.014 19.0774 49.9259 19.3615 49.9259 19.7024C49.9259 20.1968 50.1049 20.5746 50.4629 20.836C50.8265 21.0916 51.2867 21.2195 51.8435 21.2195ZM71.8847 14.12L68.5609 14.3246C68.5041 14.0405 68.3819 13.7848 68.1944 13.5575C68.0069 13.3246 67.7597 13.1399 67.4529 13.0036C67.1518 12.8615 66.791 12.7905 66.3705 12.7905C65.808 12.7905 65.3336 12.9098 64.9472 13.1485C64.5609 13.3814 64.3677 13.6939 64.3677 14.086C64.3677 14.3985 64.4927 14.6627 64.7427 14.8786C64.9927 15.0945 65.4217 15.2678 66.0296 15.3985L68.3989 15.8757C69.6717 16.1371 70.6205 16.5575 71.2455 17.1371C71.8705 17.7166 72.183 18.478 72.183 19.4212C72.183 20.2791 71.9302 21.032 71.4245 21.6797C70.9245 22.3274 70.237 22.8331 69.362 23.1968C68.4927 23.5547 67.4898 23.7337 66.3535 23.7337C64.6205 23.7337 63.2398 23.3729 62.2114 22.6513C61.1887 21.924 60.5893 20.9354 60.4131 19.6854L63.9842 19.4979C64.0921 20.0263 64.3535 20.4297 64.7683 20.7081C65.183 20.9808 65.7143 21.1172 66.362 21.1172C66.9984 21.1172 67.5097 20.995 67.8961 20.7507C68.2881 20.5007 68.487 20.1797 68.4927 19.7877C68.487 19.4581 68.3478 19.1882 68.0751 18.978C67.8023 18.7621 67.3819 18.5973 66.8137 18.4837L64.5467 18.032C63.2683 17.7763 62.3166 17.3331 61.6916 16.7024C61.0722 16.0718 60.7626 15.2678 60.7626 14.2905C60.7626 13.4496 60.9898 12.7252 61.4444 12.1172C61.9046 11.5093 62.5495 11.0405 63.3791 10.711C64.2143 10.3814 65.1916 10.2166 66.3109 10.2166C67.9643 10.2166 69.2654 10.5661 70.2143 11.2649C71.1688 11.9638 71.7256 12.9155 71.8847 14.12ZM74.5374 23.478V6.02345H81.4238C82.7477 6.02345 83.8755 6.2763 84.8073 6.78198C85.7391 7.28198 86.4494 7.978 86.938 8.87005C87.4323 9.75641 87.6795 10.7791 87.6795 11.9382C87.6795 13.0973 87.4295 14.12 86.9295 15.0064C86.4295 15.8928 85.705 16.5831 84.7562 17.0774C83.813 17.5718 82.671 17.8189 81.33 17.8189H76.9408V14.8615H80.7335C81.4437 14.8615 82.0289 14.7394 82.4891 14.495C82.955 14.245 83.3016 13.9013 83.5289 13.4638C83.7619 13.0206 83.8783 12.5121 83.8783 11.9382C83.8783 11.3587 83.7619 10.853 83.5289 10.4212C83.3016 9.98368 82.955 9.64561 82.4891 9.40698C82.0232 9.16266 81.4323 9.0405 80.7164 9.0405H78.2278V23.478H74.5374ZM105.477 12.1343H101.744C101.676 11.6513 101.537 11.2223 101.326 10.8473C101.116 10.4666 100.846 10.1428 100.517 9.87573C100.187 9.60868 99.8066 9.40414 99.3748 9.26209C98.9487 9.12005 98.4856 9.04902 97.9856 9.04902C97.0822 9.04902 96.2952 9.27346 95.6248 9.72232C94.9543 10.1655 94.4344 10.8132 94.0651 11.6655C93.6958 12.5121 93.5112 13.5405 93.5112 14.7507C93.5112 15.995 93.6958 17.0405 94.0651 17.8871C94.4401 18.7337 94.9629 19.3729 95.6333 19.8047C96.3038 20.2365 97.0793 20.4524 97.96 20.4524C98.4543 20.4524 98.9117 20.3871 99.3322 20.2564C99.7583 20.1257 100.136 19.9354 100.466 19.6854C100.795 19.4297 101.068 19.12 101.284 18.7564C101.505 18.3928 101.659 17.978 101.744 17.5121L105.477 17.5291C105.38 18.3303 105.139 19.103 104.753 19.8473C104.372 20.586 103.858 21.2479 103.21 21.8331C102.568 22.4127 101.801 22.8729 100.909 23.2138C100.023 23.549 99.0197 23.7166 97.9004 23.7166C96.3435 23.7166 94.9515 23.3644 93.7242 22.6598C92.5026 21.9553 91.5367 20.9354 90.8265 19.6002C90.1219 18.2649 89.7697 16.6485 89.7697 14.7507C89.7697 12.8473 90.1276 11.228 90.8435 9.89277C91.5594 8.55755 92.531 7.5405 93.7583 6.84164C94.9856 6.13709 96.3663 5.78482 97.9004 5.78482C98.9117 5.78482 99.8492 5.92686 100.713 6.21095C101.582 6.49505 102.352 6.90982 103.023 7.45527C103.693 7.99505 104.238 8.65698 104.659 9.44107C105.085 10.2252 105.358 11.1229 105.477 12.1343ZM117.592 11.0433C117.524 10.3558 117.231 9.82175 116.714 9.44107C116.197 9.06039 115.496 8.87005 114.609 8.87005C114.007 8.87005 113.498 8.95527 113.084 9.12573C112.669 9.2905 112.351 9.52061 112.129 9.81607C111.913 10.1115 111.805 10.4468 111.805 10.8218C111.794 11.1343 111.859 11.407 112.001 11.6399C112.149 11.8729 112.351 12.0746 112.606 12.245C112.862 12.4098 113.157 12.5547 113.493 12.6797C113.828 12.799 114.186 12.9013 114.567 12.9865L116.135 13.3615C116.896 13.532 117.595 13.7593 118.231 14.0433C118.868 14.3274 119.419 14.6769 119.885 15.0916C120.351 15.5064 120.711 15.995 120.967 16.5575C121.228 17.12 121.362 17.7649 121.368 18.4922C121.362 19.5604 121.089 20.4865 120.55 21.2706C120.015 22.049 119.243 22.6541 118.231 23.086C117.226 23.5121 116.013 23.7252 114.592 23.7252C113.183 23.7252 111.956 23.5093 110.91 23.0774C109.871 22.6456 109.058 22.0064 108.473 21.1598C107.893 20.3075 107.589 19.2536 107.561 17.9979H111.132C111.172 18.5831 111.339 19.0718 111.635 19.4638C111.936 19.8502 112.336 20.1428 112.836 20.3416C113.342 20.5348 113.913 20.6314 114.55 20.6314C115.175 20.6314 115.717 20.5405 116.177 20.3587C116.643 20.1769 117.004 19.924 117.26 19.6002C117.515 19.2763 117.643 18.9041 117.643 18.4837C117.643 18.0916 117.527 17.7621 117.294 17.495C117.067 17.228 116.731 17.0007 116.288 16.8132C115.851 16.6257 115.314 16.4553 114.677 16.3019L112.777 15.8246C111.305 15.4666 110.143 14.907 109.291 14.1456C108.439 13.3843 108.015 12.3587 108.021 11.0689C108.015 10.0121 108.297 9.0888 108.865 8.29902C109.439 7.50925 110.226 6.89277 111.226 6.44959C112.226 6.00641 113.362 5.78482 114.635 5.78482C115.93 5.78482 117.061 6.00641 118.027 6.44959C118.998 6.89277 119.754 7.50925 120.294 8.29902C120.834 9.0888 121.112 10.0036 121.129 11.0433H117.592Z" fill="black"/>
<path d="M116.814 13.991V7.42848H117.928V13.991H116.814ZM114.089 11.2665V10.1529H120.652V11.2665H114.089Z" fill="#007FFF"/>
</svg>
