<svg xmlns="http://www.w3.org/2000/svg" width="23.958" height="25.401" viewBox="0 0 23.958 25.401"><path d="M24.028,16.725H38.233a2.909,2.909,0,0,0,2.925-2.882V7.892a.065.065,0,0,0-.005-.031c0-.01-.005-.026-.005-.037s-.005-.021-.005-.031a.331.331,0,0,1-.011-.037c-.005-.01-.005-.021-.011-.031s-.005-.021-.011-.031a.252.252,0,0,1-.016-.037.114.114,0,0,0-.016-.026L41.063,7.6c-.005-.01-.011-.016-.016-.026s-.016-.021-.021-.031A.092.092,0,0,0,41,7.516c-.005-.01-.016-.016-.021-.026s-.016-.016-.021-.026-.016-.016-.021-.021l-.026-.026C40.9,7.412,40.9,7.4,40.888,7.4s-.021-.016-.032-.021-.016-.01-.026-.016a.111.111,0,0,1-.032-.021l-.032-.016-.032-.016L40.7,7.291c-.011-.005-.021-.005-.032-.01a.1.1,0,0,0-.037-.01.232.232,0,0,1-.026-.005.118.118,0,0,0-.042-.005c-.005,0-.011-.005-.021-.005l-18-2.448V2.332a.316.316,0,0,0-.005-.073.039.039,0,0,0-.005-.021c0-.016-.005-.031-.005-.047s-.005-.026-.011-.042-.005-.016-.005-.026l-.016-.047c0-.005-.005-.016-.005-.021a.155.155,0,0,0-.021-.042c-.005-.005-.005-.016-.011-.021a.109.109,0,0,0-.021-.031c-.005-.01-.011-.016-.016-.026s-.011-.016-.016-.026-.016-.021-.021-.031l-.016-.016-.032-.031-.016-.016a.23.23,0,0,0-.037-.031c-.005-.005-.016-.01-.021-.016s-.021-.016-.032-.026a.49.49,0,0,0-.042-.026c-.005-.005-.011-.005-.016-.01L22.1,1.674,18.195.056a.718.718,0,0,0-.938.376.7.7,0,0,0,.381.924L21.1,2.8V18.239a2.9,2.9,0,0,0,2.549,2.856,2.816,2.816,0,0,0-.413,1.462,2.888,2.888,0,0,0,5.775,0,2.76,2.76,0,0,0-.4-1.436h6.432a2.774,2.774,0,0,0-.4,1.436,2.888,2.888,0,1,0,2.888-2.845H24.028a1.485,1.485,0,0,1-1.494-1.472V16.328A2.992,2.992,0,0,0,24.028,16.725Zm3.561,5.826a1.457,1.457,0,1,1-1.457-1.436A1.449,1.449,0,0,1,27.589,22.551Zm11.413,0a1.457,1.457,0,1,1-1.457-1.436A1.449,1.449,0,0,1,39,22.551Zm-.768-7.236H24.028a1.485,1.485,0,0,1-1.494-1.472V6.227L39.728,8.56v5.278A1.486,1.486,0,0,1,38.233,15.315Z" transform="translate(-17.2 0)"/></svg>