<svg xmlns="http://www.w3.org/2000/svg" width="22.67" height="22.67" viewBox="0 0 22.67 22.67"><path d="M.024,11.808a11.32,11.32,0,0,0,22.622,0,.349.349,0,0,0,.024-.119.33.33,0,0,0-.014-.071c0-.095.014-.188.014-.283a11.335,11.335,0,0,0-22.67,0c0,.1.012.188.014.283A.33.33,0,0,0,0,11.689.349.349,0,0,0,.024,11.808Zm17.631,4.3a15.53,15.53,0,0,0-2.986-.9c.112-1.029.178-2.1.2-3.167H18.4A14.822,14.822,0,0,1,17.655,16.111ZM19.1,12.043h2.822a10.545,10.545,0,0,1-1.887,5.369,12.156,12.156,0,0,0-1.741-1.02A15.377,15.377,0,0,0,19.1,12.043ZM8.777,15.788a16.246,16.246,0,0,1,5.116,0c-.492,3.78-1.566,6.173-2.557,6.173S9.269,19.568,8.777,15.788Zm1.076,5.935c-1.949-.625-3.6-2.459-4.592-4.948a14.787,14.787,0,0,1,2.827-.862A13.936,13.936,0,0,0,9.853,21.724ZM8.7,7.587a17.307,17.307,0,0,0,2.64.206,17.307,17.307,0,0,0,2.64-.206,35.531,35.531,0,0,1,.194,3.748H8.5A35.531,35.531,0,0,1,8.7,7.587Zm5.463,4.457c-.02,1.08-.084,2.1-.184,3.04a17,17,0,0,0-5.279,0c-.123-1.152-.168-2.166-.184-3.04Zm.425,3.87a14.8,14.8,0,0,1,2.827.862c-.995,2.489-2.643,4.323-4.592,4.948A13.956,13.956,0,0,0,14.583,15.914Zm.294-4.579a36.353,36.353,0,0,0-.208-3.875,15.58,15.58,0,0,0,2.986-.9,14.993,14.993,0,0,1,.764,4.776Zm-.294-4.579A13.931,13.931,0,0,0,12.817.946c1.949.625,3.6,2.459,4.592,4.948A14.73,14.73,0,0,1,14.583,6.756Zm-.69.125a16.589,16.589,0,0,1-2.558.2,16.589,16.589,0,0,1-2.558-.2C9.269,3.1,10.343.708,11.335.708S13.4,3.1,13.893,6.882ZM8.087,6.756A14.8,14.8,0,0,1,5.26,5.894C6.255,3.405,7.9,1.571,9.852.946A13.956,13.956,0,0,0,8.087,6.756ZM8,7.46a36.354,36.354,0,0,0-.208,3.875H4.251a15,15,0,0,1,.764-4.776A15.581,15.581,0,0,0,8,7.46Zm-.2,4.584c.021,1.068.086,2.137.2,3.167a15.58,15.58,0,0,0-2.986.9,14.823,14.823,0,0,1-.74-4.068ZM4.371,16.393a12.214,12.214,0,0,0-1.74,1.02A10.543,10.543,0,0,1,.745,12.043H3.567A15.4,15.4,0,0,0,4.371,16.393ZM3.055,17.98a11.424,11.424,0,0,1,1.564-.925,10.31,10.31,0,0,0,2.966,4.21A10.662,10.662,0,0,1,3.055,17.98Zm12.03,3.285a10.3,10.3,0,0,0,2.966-4.21,11.5,11.5,0,0,1,1.564.925A10.65,10.65,0,0,1,15.085,21.265Zm4.042-9.93A15.553,15.553,0,0,0,18.3,6.277a12.222,12.222,0,0,0,1.741-1.02,10.563,10.563,0,0,1,1.922,6.078Zm.487-6.645a11.5,11.5,0,0,1-1.564.925A10.305,10.305,0,0,0,15.086,1.4,10.671,10.671,0,0,1,19.615,4.69ZM7.585,1.4a10.3,10.3,0,0,0-2.966,4.21A11.457,11.457,0,0,1,3.055,4.69,10.655,10.655,0,0,1,7.585,1.4ZM2.631,5.257a12.175,12.175,0,0,0,1.74,1.02,15.553,15.553,0,0,0-.829,5.058H.708A10.558,10.558,0,0,1,2.631,5.257Z"/></svg>