<svg xmlns="http://www.w3.org/2000/svg" xmlns:xlink="http://www.w3.org/1999/xlink" width="442.447" height="248.547" viewBox="0 0 442.447 248.547"><defs><style>.a{fill:rgba(255,255,255,0.9);opacity:0.9;}.b{fill:#d1cccc;fill-rule:evenodd;}.c{fill:#6285f9;}.d{fill:#ffc766;}.e{fill:#c4d1fd;}.f{fill:#b6f6e7;}.g{fill:#e21876;}.h{fill:#d7bdfa;}.i{fill:#383434;}.j{fill:#686868;}.k{fill:#007fff;}.l{fill:#fff;}.m{fill:none;}.n{filter:url(#a);}</style><filter id="a" x="0" y="0" width="442.447" height="248.547" filterUnits="userSpaceOnUse"><feOffset input="SourceAlpha"/><feGaussianBlur stdDeviation="15" result="b"/><feFlood flood-opacity="0.161"/><feComposite operator="in" in2="b"/><feComposite in="SourceGraphic"/></filter></defs><g transform="translate(45 45)"><g class="n" transform="matrix(1, 0, 0, 1, -45, -45)"><rect class="a" width="352.447" height="158.547" transform="translate(45 45)"/></g><path class="b" d="M95.853,124.969c29.761,0,53.887-20.325,53.887-45.4s-24.126-45.4-53.887-45.4S41.967,54.5,41.967,79.571,66.092,124.969,95.853,124.969Zm0,18.506c41.892,0,75.854-28.611,75.854-63.9s-33.961-63.9-75.854-63.9S20,44.278,20,79.571,53.961,143.476,95.853,143.476Z"/><path class="c" d="M89.317,35.741a49.249,49.249,0,0,0-40.133,77.786l-15.93,12.232A69.323,69.323,0,0,1,89.317,15.667Z" transform="translate(4 -2.828)"/><path class="d" d="M16.417,0A49.243,49.243,0,0,0,85.028,11.932L96.58,28.349A69.318,69.318,0,0,1,0,11.552Z" transform="translate(33.291 100.767) rotate(2)"/><path class="e" d="M128.557,142.378l-11.4-16.521a49.013,49.013,0,0,0,17.8-22.367l19.329,5.646A69.008,69.008,0,0,1,128.557,142.378Z" transform="translate(13.351 -12.157)"/><path class="f" d="M127.693,27.28,116.538,43.969A49.017,49.017,0,0,0,89.184,35.66L87.309,15.611A69,69,0,0,1,127.693,27.28Z" transform="translate(10.963)"/><path class="g" d="M136.873,34.493,123.105,49.1a49.014,49.014,0,0,0-25.6-12.729L98.982,16.29A69,69,0,0,1,136.873,34.493Z" transform="translate(12.198)"/><path class="h" d="M156.685,67.288l-19.38,5.23A49.018,49.018,0,0,0,122.17,48.265l11.778-16.333A69,69,0,0,1,156.685,67.288Z" transform="translate(15.022 0.629)"/><path class="i" d="M66.234,94.578q3.011-2.509,4.8-4.172a19.86,19.86,0,0,0,2.98-3.513A6.512,6.512,0,0,0,75.2,83.318a3.822,3.822,0,0,0-.753-2.509,2.84,2.84,0,0,0-2.321-.91,2.9,2.9,0,0,0-2.415,1.066,4.511,4.511,0,0,0-.878,2.854H64.572a7.17,7.17,0,0,1,7.622-7.653,7.429,7.429,0,0,1,5.489,1.913A6.68,6.68,0,0,1,79.6,83.067a9.044,9.044,0,0,1-1.317,4.673,18.875,18.875,0,0,1-3.011,3.889q-1.694,1.631-4.423,3.952H80.1V99.22H64.6V95.959Zm28.487-12.2a3.566,3.566,0,0,0-1.1-1.976,3.241,3.241,0,0,0-2.2-.659,3.457,3.457,0,0,0-3.2,1.756,12,12,0,0,0-1.035,5.646,5,5,0,0,1,2.2-1.945,6.915,6.915,0,0,1,3.136-.721,7.256,7.256,0,0,1,3.607.878,6.063,6.063,0,0,1,2.446,2.572,9.392,9.392,0,0,1-.031,8,6.348,6.348,0,0,1-2.6,2.7,9.56,9.56,0,0,1-9.253-.471,7.638,7.638,0,0,1-2.6-4.015,24.3,24.3,0,0,1-.721-6.4q0-5.74,1.976-8.657,1.976-2.948,6.242-2.948A6.984,6.984,0,0,1,96.7,77.924a7.091,7.091,0,0,1,2.1,4.454Zm-3.2,5.708a4.128,4.128,0,0,0-2.791.972A3.521,3.521,0,0,0,87.6,91.881a3.65,3.65,0,0,0,4.015,3.983,3.481,3.481,0,0,0,2.666-1.035,3.84,3.84,0,0,0,1-2.791,4.119,4.119,0,0,0-.972-2.886A3.526,3.526,0,0,0,91.521,88.086Zm19.154,11.448-2.861-4.316-2.534,4.316h-3.764l4.542-6.976-4.592-6.925h3.964l2.836,4.291,2.559-4.291h3.764l-4.567,6.925,4.617,6.976Z" transform="translate(8.401 -5.649)"/><path class="i" d="M68.6,72.358V66.089h.729v6.269Zm5.562,0v-3.04a1.227,1.227,0,0,0-.262-.858,1.066,1.066,0,0,0-.819-.283,1.351,1.351,0,0,0-1.081.4,2.014,2.014,0,0,0-.343,1.316v2.466h-.712v-4.7h.579l.116.643h.034a1.44,1.44,0,0,1,.613-.536,1.974,1.974,0,0,1,.879-.193,1.779,1.779,0,0,1,1.278.412,1.735,1.735,0,0,1,.429,1.308v3.066Zm4.3-4.147h-1.2v4.147h-.712V68.211h-.84V67.89l.84-.257v-.262q0-1.732,1.514-1.732a3.117,3.117,0,0,1,.875.15l-.184.57a2.356,2.356,0,0,0-.7-.133.683.683,0,0,0-.6.27,1.484,1.484,0,0,0-.193.858v.3h1.2ZM83.373,70a2.6,2.6,0,0,1-.579,1.8,2.042,2.042,0,0,1-1.6.643,2.119,2.119,0,0,1-1.119-.3,1.954,1.954,0,0,1-.755-.849A2.96,2.96,0,0,1,79.055,70a2.58,2.58,0,0,1,.575-1.788,2.029,2.029,0,0,1,1.6-.643,1.982,1.982,0,0,1,1.565.656A2.576,2.576,0,0,1,83.373,70Zm-3.581,0a2.23,2.23,0,0,0,.36,1.372,1.429,1.429,0,0,0,2.118,0A2.22,2.22,0,0,0,82.636,70a2.165,2.165,0,0,0-.364-1.359,1.448,1.448,0,0,0-2.123-.009A2.208,2.208,0,0,0,79.793,70Zm9.232-1.793h-1.2v4.147h-.712V68.211h-.84V67.89l.84-.257v-.262q0-1.732,1.514-1.732a3.117,3.117,0,0,1,.875.15l-.184.57a2.356,2.356,0,0,0-.7-.133.683.683,0,0,0-.6.27,1.484,1.484,0,0,0-.193.858v.3h1.2ZM93.939,70a2.6,2.6,0,0,1-.579,1.8,2.042,2.042,0,0,1-1.6.643,2.119,2.119,0,0,1-1.119-.3,1.954,1.954,0,0,1-.755-.849A2.96,2.96,0,0,1,89.621,70a2.58,2.58,0,0,1,.575-1.788,2.029,2.029,0,0,1,1.6-.643,1.982,1.982,0,0,1,1.565.656A2.576,2.576,0,0,1,93.939,70Zm-3.581,0a2.23,2.23,0,0,0,.36,1.372,1.429,1.429,0,0,0,2.118,0A2.22,2.22,0,0,0,93.2,70a2.165,2.165,0,0,0-.364-1.359,1.448,1.448,0,0,0-2.123-.009A2.208,2.208,0,0,0,90.359,70Zm5.5-2.346v3.049a1.227,1.227,0,0,0,.262.858,1.066,1.066,0,0,0,.819.283,1.33,1.33,0,0,0,1.076-.4,2.024,2.024,0,0,0,.343-1.317v-2.47h.712v4.7h-.588l-.1-.63h-.039a1.416,1.416,0,0,1-.609.532,2.026,2.026,0,0,1-.883.184,1.8,1.8,0,0,1-1.286-.407,1.739,1.739,0,0,1-.425-1.3V67.658Zm7.941,4.7v-3.04a1.229,1.229,0,0,0-.261-.858,1.067,1.067,0,0,0-.819-.283,1.352,1.352,0,0,0-1.081.4,2.012,2.012,0,0,0-.343,1.316v2.466h-.712v-4.7h.579l.116.643h.034a1.44,1.44,0,0,1,.613-.536,1.979,1.979,0,0,1,.88-.193,1.776,1.776,0,0,1,1.277.412,1.735,1.735,0,0,1,.429,1.308v3.066Zm5.378-.63h-.039a1.671,1.671,0,0,1-1.475.716,1.749,1.749,0,0,1-1.436-.63,2.778,2.778,0,0,1-.511-1.793,2.822,2.822,0,0,1,.515-1.805,1.731,1.731,0,0,1,1.432-.643,1.71,1.71,0,0,1,1.467.695h.055l-.03-.339-.017-.33V65.685h.712v6.673h-.579Zm-1.424.12a1.293,1.293,0,0,0,1.055-.395,2.005,2.005,0,0,0,.33-1.282v-.15a2.337,2.337,0,0,0-.334-1.424,1.252,1.252,0,0,0-1.059-.429,1.094,1.094,0,0,0-.961.489,2.422,2.422,0,0,0-.33,1.372,2.321,2.321,0,0,0,.33,1.359A1.118,1.118,0,0,0,107.756,71.848Z" transform="translate(8.641 -4.371)"/><path d="M191.883,36.837a3.427,3.427,0,0,1-.432,1.68,3.059,3.059,0,0,1-1.328,1.264,4.784,4.784,0,0,1-2.272.48h-1.872v4.288h-2.24V33.381h4.112a4.97,4.97,0,0,1,2.208.448,3.073,3.073,0,0,1,1.36,1.232A3.424,3.424,0,0,1,191.883,36.837Zm-4.128,1.616a1.967,1.967,0,0,0,1.376-.416,1.591,1.591,0,0,0,.448-1.2q0-1.632-1.824-1.632h-1.776v3.248Zm13.958,1.472a5.25,5.25,0,0,1-.064.864h-6.48a2.2,2.2,0,0,0,.672,1.5,2.072,2.072,0,0,0,1.456.544,1.829,1.829,0,0,0,1.776-1.072h2.416a4.08,4.08,0,0,1-1.472,2.112,4.326,4.326,0,0,1-2.672.816,4.723,4.723,0,0,1-2.3-.56,4.121,4.121,0,0,1-1.584-1.616,5.457,5.457,0,0,1,0-4.816,3.906,3.906,0,0,1,1.568-1.6,4.7,4.7,0,0,1,2.32-.56,4.613,4.613,0,0,1,2.256.544,3.755,3.755,0,0,1,1.552,1.552A4.578,4.578,0,0,1,201.713,39.925Zm-2.32-.64a1.754,1.754,0,0,0-.624-1.376,2.189,2.189,0,0,0-1.488-.528,2.043,2.043,0,0,0-1.408.512,2.2,2.2,0,0,0-.688,1.392Zm6.195-2.224a3.057,3.057,0,0,1,2.72-1.5v2.352h-.592a1.861,1.861,0,0,0-2.128,2.224v4.416h-2.24V35.685h2.24Zm7.621,7.632a4.759,4.759,0,0,1-1.952-.384,3.578,3.578,0,0,1-1.376-1.072,2.725,2.725,0,0,1-.544-1.488h2.256a1.239,1.239,0,0,0,.5.848,1.789,1.789,0,0,0,1.1.336,1.663,1.663,0,0,0,.992-.256.771.771,0,0,0,.368-.656.676.676,0,0,0-.448-.64,7.436,7.436,0,0,0-1.392-.48,12.287,12.287,0,0,1-1.632-.5,2.9,2.9,0,0,1-1.088-.784,2.127,2.127,0,0,1-.448-1.424,2.331,2.331,0,0,1,.416-1.344,2.911,2.911,0,0,1,1.216-.96,4.615,4.615,0,0,1,1.872-.352,3.78,3.78,0,0,1,2.528.8,2.909,2.909,0,0,1,1.04,2.128h-2.144a1.124,1.124,0,0,0-.448-.832,1.575,1.575,0,0,0-1.04-.32,1.693,1.693,0,0,0-.944.224.72.72,0,0,0-.32.624.749.749,0,0,0,.448.688,7.43,7.43,0,0,0,1.392.464,11.825,11.825,0,0,1,1.584.5,2.707,2.707,0,0,1,1.072.8,2.121,2.121,0,0,1,.48,1.408,2.318,2.318,0,0,1-.432,1.376,2.783,2.783,0,0,1-1.216.96A4.645,4.645,0,0,1,213.209,44.693Zm9.263,0a4.718,4.718,0,0,1-2.3-.56,4.194,4.194,0,0,1-1.616-1.616,4.872,4.872,0,0,1-.576-2.4,4.763,4.763,0,0,1,.592-2.4,4.163,4.163,0,0,1,1.648-1.6,4.96,4.96,0,0,1,4.64,0,4.066,4.066,0,0,1,1.632,1.6,4.671,4.671,0,0,1,.608,2.4,4.574,4.574,0,0,1-.624,2.4,4.256,4.256,0,0,1-1.664,1.616A4.849,4.849,0,0,1,222.472,44.693Zm0-1.952a2.336,2.336,0,0,0,1.136-.288,2.2,2.2,0,0,0,.864-.9,3,3,0,0,0,.32-1.44,2.621,2.621,0,0,0-.672-1.936,2.242,2.242,0,0,0-3.232,0,2.7,2.7,0,0,0-.64,1.936,2.8,2.8,0,0,0,.624,1.952A2.117,2.117,0,0,0,222.472,42.741Zm11.179-7.184a3.4,3.4,0,0,1,2.56,1.008,3.8,3.8,0,0,1,.976,2.784v5.2h-2.24v-4.9a2.269,2.269,0,0,0-.528-1.616,1.857,1.857,0,0,0-1.44-.576,1.927,1.927,0,0,0-1.472.576,2.269,2.269,0,0,0-.528,1.616v4.9h-2.24V35.685h2.24v1.1a3.03,3.03,0,0,1,1.136-.9A3.517,3.517,0,0,1,233.651,35.557Zm5.09,4.528a5.2,5.2,0,0,1,.528-2.384,4.006,4.006,0,0,1,1.456-1.6,3.92,3.92,0,0,1,2.064-.56,3.567,3.567,0,0,1,1.728.4,3.509,3.509,0,0,1,1.2,1.008V35.685h2.256v8.864h-2.256v-1.3a3.384,3.384,0,0,1-1.2,1.04,3.658,3.658,0,0,1-1.744.4,3.807,3.807,0,0,1-2.048-.576,4.124,4.124,0,0,1-1.456-1.616A5.331,5.331,0,0,1,238.741,40.085Zm6.976.032a2.83,2.83,0,0,0-.32-1.392,2.186,2.186,0,0,0-.864-.9,2.313,2.313,0,0,0-2.32-.016,2.332,2.332,0,0,0-.864.9,2.8,2.8,0,0,0-.32,1.376,2.983,2.983,0,0,0,.32,1.408,2.456,2.456,0,0,0,.864.912,2.238,2.238,0,0,0,1.152.32,2.357,2.357,0,0,0,1.168-.3,2.323,2.323,0,0,0,.864-.9A2.924,2.924,0,0,0,245.717,40.117Zm6.684-7.408v11.84h-2.24V32.709Zm5.449,7.376a5.2,5.2,0,0,1,.528-2.384,3.972,3.972,0,0,1,1.472-1.6,3.92,3.92,0,0,1,2.064-.56,3.7,3.7,0,0,1,1.648.384,3.224,3.224,0,0,1,1.248.992V32.709h2.272v11.84H264.81V43.237a3.027,3.027,0,0,1-1.168,1.056,3.656,3.656,0,0,1-1.744.4,3.81,3.81,0,0,1-2.048-.576,4.086,4.086,0,0,1-1.472-1.616A5.331,5.331,0,0,1,257.85,40.085Zm6.976.032a2.82,2.82,0,0,0-.32-1.392,2.186,2.186,0,0,0-.864-.9,2.313,2.313,0,0,0-2.32-.016,2.332,2.332,0,0,0-.864.9,2.8,2.8,0,0,0-.32,1.376,2.983,2.983,0,0,0,.32,1.408,2.456,2.456,0,0,0,.864.912,2.238,2.238,0,0,0,1.152.32,2.354,2.354,0,0,0,1.168-.3,2.323,2.323,0,0,0,.864-.9A2.912,2.912,0,0,0,264.826,40.117Zm3.868-.032a5.2,5.2,0,0,1,.528-2.384,4.006,4.006,0,0,1,1.456-1.6,3.92,3.92,0,0,1,2.064-.56,3.567,3.567,0,0,1,1.728.4,3.509,3.509,0,0,1,1.2,1.008V35.685h2.256v8.864H275.67v-1.3a3.385,3.385,0,0,1-1.2,1.04,3.659,3.659,0,0,1-1.744.4,3.807,3.807,0,0,1-2.048-.576,4.124,4.124,0,0,1-1.456-1.616A5.331,5.331,0,0,1,268.694,40.085Zm6.976.032a2.831,2.831,0,0,0-.32-1.392,2.186,2.186,0,0,0-.864-.9,2.313,2.313,0,0,0-2.32-.016,2.332,2.332,0,0,0-.864.9,2.8,2.8,0,0,0-.32,1.376,2.983,2.983,0,0,0,.32,1.408,2.456,2.456,0,0,0,.864.912,2.238,2.238,0,0,0,1.152.32,2.357,2.357,0,0,0,1.168-.3,2.323,2.323,0,0,0,.864-.9A2.924,2.924,0,0,0,275.67,40.117Zm7.052-2.592v4.288a.9.9,0,0,0,.208.656,1.125,1.125,0,0,0,.736.192h1.04v1.888H283.3q-2.832,0-2.832-2.752V37.525H279.41v-1.84h1.056V33.493h2.256v2.192h1.984v1.84Zm3.019,2.56a5.194,5.194,0,0,1,.528-2.384,4.006,4.006,0,0,1,1.456-1.6,3.92,3.92,0,0,1,2.064-.56,3.567,3.567,0,0,1,1.728.4,3.509,3.509,0,0,1,1.2,1.008V35.685h2.256v8.864h-2.256v-1.3a3.385,3.385,0,0,1-1.2,1.04,3.659,3.659,0,0,1-1.744.4,3.807,3.807,0,0,1-2.048-.576,4.124,4.124,0,0,1-1.456-1.616A5.331,5.331,0,0,1,285.741,40.085Zm6.976.032a2.831,2.831,0,0,0-.32-1.392,2.186,2.186,0,0,0-.864-.9,2.313,2.313,0,0,0-2.32-.016,2.332,2.332,0,0,0-.864.9,2.8,2.8,0,0,0-.32,1.376,2.983,2.983,0,0,0,.32,1.408,2.456,2.456,0,0,0,.864.912,2.238,2.238,0,0,0,1.152.32,2.357,2.357,0,0,0,1.168-.3,2.323,2.323,0,0,0,.864-.9A2.924,2.924,0,0,0,292.717,40.117Zm-109.554,19a4.918,4.918,0,0,1,.56-2.4,3.93,3.93,0,0,1,1.552-1.6,4.439,4.439,0,0,1,2.272-.576,4.307,4.307,0,0,1,2.72.832,3.96,3.96,0,0,1,1.456,2.3h-2.416a1.711,1.711,0,0,0-.656-.9,1.815,1.815,0,0,0-1.12-.336,1.839,1.839,0,0,0-1.52.7,3.042,3.042,0,0,0-.56,1.968,3.083,3.083,0,0,0,.56,1.968,1.856,1.856,0,0,0,1.52.688,1.7,1.7,0,0,0,1.776-1.216h2.416a4.094,4.094,0,0,1-1.456,2.288,4.292,4.292,0,0,1-2.72.848,4.538,4.538,0,0,1-2.272-.56,4.065,4.065,0,0,1-1.552-1.6A5.011,5.011,0,0,1,183.163,59.117ZM195.6,51.709v11.84h-2.24V51.709Zm10.453,7.216a5.25,5.25,0,0,1-.064.864h-6.48a2.2,2.2,0,0,0,.672,1.5,2.073,2.073,0,0,0,1.456.544,1.829,1.829,0,0,0,1.776-1.072h2.416a4.08,4.08,0,0,1-1.472,2.112,4.326,4.326,0,0,1-2.672.816,4.723,4.723,0,0,1-2.3-.56,4.121,4.121,0,0,1-1.584-1.616,5.457,5.457,0,0,1,0-4.816,3.906,3.906,0,0,1,1.568-1.6,4.7,4.7,0,0,1,2.32-.56,4.613,4.613,0,0,1,2.256.544,3.755,3.755,0,0,1,1.552,1.552A4.578,4.578,0,0,1,206.057,58.925Zm-2.32-.64a1.754,1.754,0,0,0-.624-1.376,2.189,2.189,0,0,0-1.488-.528,2.043,2.043,0,0,0-1.408.512,2.2,2.2,0,0,0-.688,1.392Zm3.379.8a5.2,5.2,0,0,1,.528-2.384,4.006,4.006,0,0,1,1.456-1.6,3.92,3.92,0,0,1,2.064-.56,3.567,3.567,0,0,1,1.728.4,3.509,3.509,0,0,1,1.2,1.008V54.685h2.256v8.864h-2.256v-1.3a3.384,3.384,0,0,1-1.2,1.04,3.658,3.658,0,0,1-1.744.4,3.807,3.807,0,0,1-2.048-.576,4.124,4.124,0,0,1-1.456-1.616A5.331,5.331,0,0,1,207.116,59.085Zm6.976.032a2.83,2.83,0,0,0-.32-1.392,2.186,2.186,0,0,0-.864-.9,2.313,2.313,0,0,0-2.32-.016,2.332,2.332,0,0,0-.864.9,2.8,2.8,0,0,0-.32,1.376,2.983,2.983,0,0,0,.32,1.408,2.456,2.456,0,0,0,.864.912,2.238,2.238,0,0,0,1.152.32,2.357,2.357,0,0,0,1.168-.3,2.323,2.323,0,0,0,.864-.9A2.924,2.924,0,0,0,214.092,59.117Zm9.356-4.56a3.4,3.4,0,0,1,2.56,1.008,3.8,3.8,0,0,1,.976,2.784v5.2h-2.24v-4.9a2.269,2.269,0,0,0-.528-1.616,1.857,1.857,0,0,0-1.44-.576,1.927,1.927,0,0,0-1.472.576,2.269,2.269,0,0,0-.528,1.616v4.9h-2.24V54.685h2.24v1.1a3.03,3.03,0,0,1,1.136-.9A3.518,3.518,0,0,1,223.448,54.557Zm14.034.128v8.864h-2.256v-1.12a3.015,3.015,0,0,1-1.136.912,3.522,3.522,0,0,1-1.5.32,3.809,3.809,0,0,1-1.84-.432,3.21,3.21,0,0,1-1.264-1.3,4.39,4.39,0,0,1-.448-2.048v-5.2h2.24v4.88A2.329,2.329,0,0,0,231.8,61.2a1.884,1.884,0,0,0,1.44.56,1.905,1.905,0,0,0,1.456-.56,2.329,2.329,0,0,0,.528-1.632v-4.88Zm4.45,1.28a3.35,3.35,0,0,1,1.184-1.008,3.6,3.6,0,0,1,1.744-.416,3.841,3.841,0,0,1,3.5,2.16,5,5,0,0,1,.544,2.384,5.2,5.2,0,0,1-.544,2.416,3.965,3.965,0,0,1-1.456,1.616,3.756,3.756,0,0,1-2.048.576,3.621,3.621,0,0,1-1.728-.4,3.705,3.705,0,0,1-1.2-1.008v5.488h-2.24V54.685h2.24Zm4.688,3.12a2.684,2.684,0,0,0-.336-1.376,2.186,2.186,0,0,0-.864-.9,2.269,2.269,0,0,0-1.152-.3,2.239,2.239,0,0,0-1.152.32,2.332,2.332,0,0,0-.864.9,3.188,3.188,0,0,0,0,2.784,2.456,2.456,0,0,0,.864.912,2.328,2.328,0,0,0,1.152.3,2.181,2.181,0,0,0,1.152-.32,2.3,2.3,0,0,0,.864-.912A2.807,2.807,0,0,0,246.62,59.085Z" transform="translate(34.812 -2.637)"/><path class="j" d="M183.355,81.057a2.349,2.349,0,0,1,.852-1.728A3.469,3.469,0,0,1,187.6,79a2.037,2.037,0,0,1,.9.792,2.121,2.121,0,0,1,.312,1.14,1.992,1.992,0,0,1-.432,1.284,1.887,1.887,0,0,1-1.1.7v.06a2.217,2.217,0,0,1,1.236.756,2.275,2.275,0,0,1,.456,1.476,2.468,2.468,0,0,1-.312,1.236,2.161,2.161,0,0,1-.936.852,3.323,3.323,0,0,1-1.5.312,3.214,3.214,0,0,1-2.088-.66,2.6,2.6,0,0,1-.912-1.9h1.056a1.812,1.812,0,0,0,.588,1.176,1.927,1.927,0,0,0,1.344.456,1.725,1.725,0,0,0,1.272-.432,1.543,1.543,0,0,0,.444-1.14,1.437,1.437,0,0,0-.6-1.3,3.327,3.327,0,0,0-1.812-.4h-.276v-.912h.288a3.29,3.29,0,0,0,1.668-.36,1.219,1.219,0,0,0,.564-1.1,1.315,1.315,0,0,0-.42-1.02,1.652,1.652,0,0,0-1.176-.384,1.8,1.8,0,0,0-1.2.384,1.556,1.556,0,0,0-.54,1.032Zm11.926-.12a1.505,1.505,0,0,0-1.644-1.332,1.765,1.765,0,0,0-1.6.828,5.113,5.113,0,0,0-.516,2.7,2.024,2.024,0,0,1,.912-.972,2.915,2.915,0,0,1,1.44-.36,2.591,2.591,0,0,1,1.968.768,2.924,2.924,0,0,1,.744,2.124,3.229,3.229,0,0,1-.324,1.464,2.385,2.385,0,0,1-.96,1.032,2.943,2.943,0,0,1-1.548.384,3.034,3.034,0,0,1-1.932-.552,2.886,2.886,0,0,1-.972-1.524,8.917,8.917,0,0,1-.276-2.4q0-4.4,3.072-4.4a2.459,2.459,0,0,1,2.64,2.244Zm-1.632,1.788a2.242,2.242,0,0,0-.972.216,1.731,1.731,0,0,0-.744.636,1.839,1.839,0,0,0-.276,1.032,2.116,2.116,0,0,0,.528,1.488,1.97,1.97,0,0,0,1.512.564,1.753,1.753,0,0,0,1.332-.516,1.965,1.965,0,0,0,.5-1.416,2.1,2.1,0,0,0-.48-1.464A1.78,1.78,0,0,0,193.649,82.725Zm8.885-.54a2.572,2.572,0,0,1,.96-.936,2.886,2.886,0,0,1,1.5-.384,3.046,3.046,0,0,1,1.584.42,2.938,2.938,0,0,1,1.128,1.188,3.658,3.658,0,0,1,.408,1.764,3.775,3.775,0,0,1-.408,1.776,3.009,3.009,0,0,1-2.712,1.644,2.935,2.935,0,0,1-1.488-.372,2.764,2.764,0,0,1-.972-.948v4.332h-1.092v-9.7h1.092ZM207,84.237a2.674,2.674,0,0,0-.3-1.3,2.065,2.065,0,0,0-.816-.84,2.209,2.209,0,0,0-1.116-.288,2.182,2.182,0,0,0-1.116.3,2.151,2.151,0,0,0-.816.852,2.647,2.647,0,0,0-.3,1.284,2.744,2.744,0,0,0,.3,1.308,2.131,2.131,0,0,0,1.932,1.14,2.209,2.209,0,0,0,1.116-.288,2.148,2.148,0,0,0,.816-.852A2.771,2.771,0,0,0,207,84.237Zm8.553-.228a6.426,6.426,0,0,1-.036.66h-5.256a2.048,2.048,0,0,0,2.136,2.064,2.018,2.018,0,0,0,1.176-.324,1.767,1.767,0,0,0,.672-.888h1.176a2.856,2.856,0,0,1-1.056,1.548,3.21,3.21,0,0,1-1.968.588,3.357,3.357,0,0,1-1.68-.42,3,3,0,0,1-1.152-1.188,4.094,4.094,0,0,1-.012-3.588,2.836,2.836,0,0,1,1.14-1.176,3.406,3.406,0,0,1,1.7-.42,3.3,3.3,0,0,1,1.656.408,2.775,2.775,0,0,1,1.1,1.128A3.237,3.237,0,0,1,215.551,84.009Zm-1.128-.228a1.983,1.983,0,0,0-.276-1.068,1.737,1.737,0,0,0-.756-.684,2.254,2.254,0,0,0-1.044-.24,2.046,2.046,0,0,0-1.416.528,2.164,2.164,0,0,0-.66,1.464Zm3.661-1.74a2.106,2.106,0,0,1,.816-.876,2.574,2.574,0,0,1,1.308-.312v1.128h-.288q-1.836,0-1.836,1.992v3.576h-1.092V80.973h1.092Zm5.713,5.616a3.472,3.472,0,0,1-1.356-.252,2.356,2.356,0,0,1-.948-.72,1.946,1.946,0,0,1-.384-1.068h1.128a1.113,1.113,0,0,0,.456.8,1.785,1.785,0,0,0,1.092.312,1.58,1.58,0,0,0,.984-.276.843.843,0,0,0,.36-.7.674.674,0,0,0-.384-.636,5.139,5.139,0,0,0-1.188-.42,9.779,9.779,0,0,1-1.2-.384,2.279,2.279,0,0,1-.792-.588,1.578,1.578,0,0,1-.324-1.032,1.555,1.555,0,0,1,.3-.924,1.992,1.992,0,0,1,.852-.66,3,3,0,0,1,1.26-.252,2.691,2.691,0,0,1,1.764.552,1.989,1.989,0,0,1,.72,1.512h-1.092a1.121,1.121,0,0,0-.42-.828,1.519,1.519,0,0,0-1.008-.312,1.564,1.564,0,0,0-.936.252.779.779,0,0,0-.348.66.756.756,0,0,0,.2.54,1.756,1.756,0,0,0,.528.336q.324.12.888.276a8.747,8.747,0,0,1,1.152.384,1.91,1.91,0,0,1,.756.552,1.474,1.474,0,0,1,.336.972,1.664,1.664,0,0,1-.3.972,2.037,2.037,0,0,1-.852.684A3.047,3.047,0,0,1,223.8,87.657Zm6.809,0a3.4,3.4,0,0,1-1.68-.42,3.053,3.053,0,0,1-1.176-1.188,3.738,3.738,0,0,1-.42-1.8,3.561,3.561,0,0,1,.432-1.776,3.006,3.006,0,0,1,1.2-1.188,3.618,3.618,0,0,1,3.384,0,2.948,2.948,0,0,1,1.188,1.176,3.8,3.8,0,0,1-.012,3.588,3.089,3.089,0,0,1-1.212,1.188A3.492,3.492,0,0,1,230.606,87.657Zm0-.96a2.306,2.306,0,0,0,1.1-.276,2.061,2.061,0,0,0,.828-.828,2.613,2.613,0,0,0,.324-1.344,2.693,2.693,0,0,0-.312-1.344,2,2,0,0,0-.816-.816,2.237,2.237,0,0,0-1.092-.276,2.261,2.261,0,0,0-1.1.276,1.951,1.951,0,0,0-.792.816,2.781,2.781,0,0,0-.3,1.344,2.905,2.905,0,0,0,.288,1.356,2.032,2.032,0,0,0,.792.828A2.248,2.248,0,0,0,230.606,86.7Zm8.012-5.844a2.653,2.653,0,0,1,1.944.732,2.774,2.774,0,0,1,.744,2.088v3.876h-1.08v-3.72a2.092,2.092,0,0,0-.492-1.5,1.747,1.747,0,0,0-1.344-.528,1.82,1.82,0,0,0-1.38.54,2.223,2.223,0,0,0-.5,1.572v3.636h-1.092V80.973h1.092v.936a2.177,2.177,0,0,1,.876-.78A2.774,2.774,0,0,1,238.618,80.853Zm4.064,3.384a3.658,3.658,0,0,1,.408-1.764,2.964,2.964,0,0,1,1.116-1.188,3.11,3.11,0,0,1,1.6-.42,2.918,2.918,0,0,1,1.5.372,2.479,2.479,0,0,1,.948.936v-1.2h1.1v6.576h-1.1V86.325a2.6,2.6,0,0,1-.972.96,2.894,2.894,0,0,1-1.488.372,2.981,2.981,0,0,1-1.584-.432,3.03,3.03,0,0,1-1.116-1.212A3.775,3.775,0,0,1,242.682,84.237Zm5.568.012a2.674,2.674,0,0,0-.3-1.3,2.065,2.065,0,0,0-.816-.84,2.141,2.141,0,0,0-1.116-.3,2.21,2.21,0,0,0-1.116.288,2.089,2.089,0,0,0-.8.84,2.673,2.673,0,0,0-.3,1.3,2.771,2.771,0,0,0,.3,1.32,2.175,2.175,0,0,0,.8.852,2.306,2.306,0,0,0,2.232,0,2.148,2.148,0,0,0,.816-.852A2.744,2.744,0,0,0,248.25,84.249Zm4.041-5.58v8.88H251.2v-8.88Zm4.653,5.568a3.658,3.658,0,0,1,.408-1.764,2.964,2.964,0,0,1,1.116-1.188,3.132,3.132,0,0,1,1.608-.42,2.935,2.935,0,0,1,1.428.36,2.513,2.513,0,0,1,1.008.924v-3.48h1.1v8.88h-1.1V86.313a2.6,2.6,0,0,1-.96.972,2.894,2.894,0,0,1-1.488.372,2.974,2.974,0,0,1-2.712-1.644A3.775,3.775,0,0,1,256.944,84.237Zm5.568.012a2.674,2.674,0,0,0-.3-1.3,2.065,2.065,0,0,0-.816-.84,2.141,2.141,0,0,0-1.116-.3,2.209,2.209,0,0,0-1.116.288,2.089,2.089,0,0,0-.8.84,2.674,2.674,0,0,0-.3,1.3,2.771,2.771,0,0,0,.3,1.32,2.175,2.175,0,0,0,.8.852,2.306,2.306,0,0,0,2.232,0,2.148,2.148,0,0,0,.816-.852A2.744,2.744,0,0,0,262.512,84.249Zm2.541-.012a3.658,3.658,0,0,1,.408-1.764,2.964,2.964,0,0,1,1.116-1.188,3.109,3.109,0,0,1,1.6-.42,2.918,2.918,0,0,1,1.5.372,2.479,2.479,0,0,1,.948.936v-1.2h1.1v6.576h-1.1V86.325a2.6,2.6,0,0,1-.972.96,2.894,2.894,0,0,1-1.488.372,2.981,2.981,0,0,1-1.584-.432,3.03,3.03,0,0,1-1.116-1.212A3.775,3.775,0,0,1,265.053,84.237Zm5.568.012a2.674,2.674,0,0,0-.3-1.3,2.065,2.065,0,0,0-.816-.84,2.141,2.141,0,0,0-1.116-.3,2.209,2.209,0,0,0-1.116.288,2.089,2.089,0,0,0-.8.84,2.674,2.674,0,0,0-.3,1.3,2.771,2.771,0,0,0,.3,1.32,2.175,2.175,0,0,0,.8.852,2.306,2.306,0,0,0,2.232,0,2.148,2.148,0,0,0,.816-.852A2.744,2.744,0,0,0,270.621,84.249Zm4.281-2.376v3.876a.945.945,0,0,0,.2.684,1.028,1.028,0,0,0,.708.192h.8v.924h-.984a1.958,1.958,0,0,1-1.368-.42,1.8,1.8,0,0,1-.456-1.38V81.873h-.852v-.9h.852V79.317H274.9v1.656h1.716v.9Zm2.632,2.364a3.659,3.659,0,0,1,.408-1.764,2.964,2.964,0,0,1,1.116-1.188,3.109,3.109,0,0,1,1.6-.42,2.918,2.918,0,0,1,1.5.372,2.478,2.478,0,0,1,.948.936v-1.2h1.1v6.576h-1.1V86.325a2.6,2.6,0,0,1-.972.96,2.894,2.894,0,0,1-1.488.372,2.981,2.981,0,0,1-1.584-.432,3.03,3.03,0,0,1-1.116-1.212A3.775,3.775,0,0,1,277.534,84.237Zm5.568.012a2.673,2.673,0,0,0-.3-1.3,2.065,2.065,0,0,0-.816-.84,2.141,2.141,0,0,0-1.116-.3,2.209,2.209,0,0,0-1.116.288,2.089,2.089,0,0,0-.8.84,2.673,2.673,0,0,0-.3,1.3,2.771,2.771,0,0,0,.3,1.32,2.175,2.175,0,0,0,.8.852,2.306,2.306,0,0,0,2.232,0,2.148,2.148,0,0,0,.816-.852A2.744,2.744,0,0,0,283.1,84.249ZM184.123,95.9a.744.744,0,1,1,0-1.488.666.666,0,0,1,.5.216.753.753,0,0,1,0,1.056A.666.666,0,0,1,184.123,95.9Zm.528,1.068v6.576h-1.092V96.973Zm3.193.9v3.876a.945.945,0,0,0,.2.684,1.027,1.027,0,0,0,.708.192h.8v.924h-.984a1.958,1.958,0,0,1-1.368-.42,1.8,1.8,0,0,1-.456-1.38V97.873H185.9v-.9h.852V95.317h1.092v1.656h1.716v.9Zm9.039,2.136a6.426,6.426,0,0,1-.036.66h-5.256a2.048,2.048,0,0,0,2.136,2.064,2.018,2.018,0,0,0,1.176-.324,1.767,1.767,0,0,0,.672-.888h1.176a2.856,2.856,0,0,1-1.056,1.548,3.21,3.21,0,0,1-1.968.588,3.357,3.357,0,0,1-1.68-.42,3,3,0,0,1-1.152-1.188,4.095,4.095,0,0,1-.012-3.588,2.836,2.836,0,0,1,1.14-1.176,3.406,3.406,0,0,1,1.7-.42,3.3,3.3,0,0,1,1.656.408,2.775,2.775,0,0,1,1.1,1.128A3.237,3.237,0,0,1,196.883,100.009Zm-1.128-.228a1.983,1.983,0,0,0-.276-1.068,1.737,1.737,0,0,0-.756-.684,2.254,2.254,0,0,0-1.044-.24,2.046,2.046,0,0,0-1.416.528,2.164,2.164,0,0,0-.66,1.464Zm10.477-2.928a2.833,2.833,0,0,1,1.368.324,2.257,2.257,0,0,1,.948.948,3.185,3.185,0,0,1,.348,1.548v3.876h-1.08v-3.72a2.092,2.092,0,0,0-.492-1.5,1.68,1.68,0,0,0-1.308-.528,1.746,1.746,0,0,0-1.356.552,2.223,2.223,0,0,0-.5,1.572v3.624h-1.08v-3.72a2.092,2.092,0,0,0-.492-1.5,1.679,1.679,0,0,0-1.308-.528,1.746,1.746,0,0,0-1.356.552,2.223,2.223,0,0,0-.5,1.572v3.624h-1.092V96.973h1.092v.948a2.168,2.168,0,0,1,.864-.792,2.672,2.672,0,0,1,1.212-.276,2.846,2.846,0,0,1,1.464.372,2.27,2.27,0,0,1,.948,1.092,2.157,2.157,0,0,1,.912-1.08A2.687,2.687,0,0,1,206.232,96.853Zm6.784,6.8a3.472,3.472,0,0,1-1.356-.252,2.356,2.356,0,0,1-.948-.72,1.946,1.946,0,0,1-.384-1.068h1.128a1.113,1.113,0,0,0,.456.8,1.785,1.785,0,0,0,1.092.312,1.58,1.58,0,0,0,.984-.276.843.843,0,0,0,.36-.7.674.674,0,0,0-.384-.636,5.14,5.14,0,0,0-1.188-.42,9.776,9.776,0,0,1-1.2-.384,2.279,2.279,0,0,1-.792-.588,1.578,1.578,0,0,1-.324-1.032,1.555,1.555,0,0,1,.3-.924,1.992,1.992,0,0,1,.852-.66,3,3,0,0,1,1.26-.252,2.69,2.69,0,0,1,1.764.552,1.989,1.989,0,0,1,.72,1.512h-1.092a1.121,1.121,0,0,0-.42-.828,1.519,1.519,0,0,0-1.008-.312,1.564,1.564,0,0,0-.936.252.779.779,0,0,0-.348.66.756.756,0,0,0,.2.54,1.756,1.756,0,0,0,.528.336q.324.12.888.276a8.745,8.745,0,0,1,1.152.384,1.91,1.91,0,0,1,.756.552,1.474,1.474,0,0,1,.336.972,1.664,1.664,0,0,1-.3.972,2.036,2.036,0,0,1-.852.684A3.047,3.047,0,0,1,213.016,103.657Zm8.232-5.616a2.106,2.106,0,0,1,.816-.876,2.574,2.574,0,0,1,1.308-.312v1.128h-.288q-1.836,0-1.836,1.992v3.576h-1.092V96.973h1.092Zm9.385,1.968a6.426,6.426,0,0,1-.036.66h-5.256a2.048,2.048,0,0,0,2.136,2.064,2.018,2.018,0,0,0,1.176-.324,1.767,1.767,0,0,0,.672-.888H230.5a2.856,2.856,0,0,1-1.056,1.548,3.21,3.21,0,0,1-1.968.588,3.357,3.357,0,0,1-1.68-.42,3,3,0,0,1-1.152-1.188,4.095,4.095,0,0,1-.012-3.588,2.836,2.836,0,0,1,1.14-1.176,3.406,3.406,0,0,1,1.7-.42,3.3,3.3,0,0,1,1.656.408,2.775,2.775,0,0,1,1.1,1.128A3.237,3.237,0,0,1,230.633,100.009Zm-1.128-.228a1.983,1.983,0,0,0-.276-1.068,1.737,1.737,0,0,0-.756-.684,2.254,2.254,0,0,0-1.044-.24,2.046,2.046,0,0,0-1.416.528,2.164,2.164,0,0,0-.66,1.464Zm10.477-2.928a2.833,2.833,0,0,1,1.368.324,2.257,2.257,0,0,1,.948.948,3.185,3.185,0,0,1,.348,1.548v3.876h-1.08v-3.72a2.092,2.092,0,0,0-.492-1.5,1.68,1.68,0,0,0-1.308-.528,1.746,1.746,0,0,0-1.356.552,2.223,2.223,0,0,0-.5,1.572v3.624h-1.08v-3.72a2.092,2.092,0,0,0-.492-1.5,1.679,1.679,0,0,0-1.308-.528,1.746,1.746,0,0,0-1.356.552,2.223,2.223,0,0,0-.5,1.572v3.624h-1.092V96.973h1.092v.948a2.168,2.168,0,0,1,.864-.792,2.672,2.672,0,0,1,1.212-.276,2.846,2.846,0,0,1,1.464.372,2.27,2.27,0,0,1,.948,1.092,2.157,2.157,0,0,1,.912-1.08A2.687,2.687,0,0,1,239.982,96.853Zm7.324,6.8a3.4,3.4,0,0,1-1.68-.42,3.053,3.053,0,0,1-1.176-1.188,3.738,3.738,0,0,1-.42-1.8,3.561,3.561,0,0,1,.432-1.776,3.006,3.006,0,0,1,1.2-1.188,3.618,3.618,0,0,1,3.384,0,2.948,2.948,0,0,1,1.188,1.176,3.8,3.8,0,0,1-.012,3.588,3.089,3.089,0,0,1-1.212,1.188A3.492,3.492,0,0,1,247.306,103.657Zm0-.96a2.306,2.306,0,0,0,1.1-.276,2.062,2.062,0,0,0,.828-.828,2.613,2.613,0,0,0,.324-1.344,2.693,2.693,0,0,0-.312-1.344,2,2,0,0,0-.816-.816,2.237,2.237,0,0,0-1.092-.276,2.261,2.261,0,0,0-1.1.276,1.951,1.951,0,0,0-.792.816,2.781,2.781,0,0,0-.3,1.344,2.905,2.905,0,0,0,.288,1.356,2.032,2.032,0,0,0,.792.828A2.248,2.248,0,0,0,247.306,102.7Zm7.255-.156,2.04-5.568h1.164l-2.58,6.576h-1.272l-2.58-6.576h1.176Zm10.279-2.532a6.422,6.422,0,0,1-.036.66h-5.256a2.048,2.048,0,0,0,2.136,2.064,2.018,2.018,0,0,0,1.176-.324,1.768,1.768,0,0,0,.672-.888h1.176a2.856,2.856,0,0,1-1.056,1.548,3.21,3.21,0,0,1-1.968.588,3.357,3.357,0,0,1-1.68-.42,3,3,0,0,1-1.152-1.188,4.095,4.095,0,0,1-.012-3.588,2.836,2.836,0,0,1,1.14-1.176,3.406,3.406,0,0,1,1.7-.42,3.3,3.3,0,0,1,1.656.408,2.775,2.775,0,0,1,1.1,1.128A3.237,3.237,0,0,1,264.84,100.009Zm-1.128-.228a1.983,1.983,0,0,0-.276-1.068,1.737,1.737,0,0,0-.756-.684,2.254,2.254,0,0,0-1.044-.24,2.046,2.046,0,0,0-1.416.528,2.164,2.164,0,0,0-.66,1.464Zm2.161.456a3.659,3.659,0,0,1,.408-1.764,2.964,2.964,0,0,1,1.116-1.188,3.132,3.132,0,0,1,1.608-.42,2.935,2.935,0,0,1,1.428.36,2.513,2.513,0,0,1,1.008.924v-3.48h1.1v8.88h-1.1v-1.236a2.6,2.6,0,0,1-.96.972,2.894,2.894,0,0,1-1.488.372,2.974,2.974,0,0,1-2.712-1.644A3.775,3.775,0,0,1,265.873,100.237Zm5.568.012a2.674,2.674,0,0,0-.3-1.3,2.065,2.065,0,0,0-.816-.84,2.141,2.141,0,0,0-1.116-.3,2.209,2.209,0,0,0-1.116.288,2.089,2.089,0,0,0-.8.84,2.674,2.674,0,0,0-.3,1.3,2.771,2.771,0,0,0,.3,1.32,2.175,2.175,0,0,0,.8.852,2.306,2.306,0,0,0,2.232,0,2.148,2.148,0,0,0,.816-.852A2.744,2.744,0,0,0,271.441,100.249Z" transform="translate(34.812 -5.899)"/><path class="k" d="M182.635,127.686a12.137,12.137,0,0,1,12.137-12.137h50.31a12.138,12.138,0,0,1,0,24.275h-50.31A12.137,12.137,0,0,1,182.635,127.686Z" transform="translate(33.159 -8.622)"/><path class="l" d="M198.058,131.687l-1.663-2.935h-.712v2.935h-1.511l0-7.531H197a3.25,3.25,0,0,1,1.489.313,2.067,2.067,0,0,1,.917.83,2.219,2.219,0,0,1,.314,1.166,2.27,2.27,0,0,1-.431,1.348,2.228,2.228,0,0,1-1.284.82l1.8,3.054Zm-2.376-4.068h1.262a1.276,1.276,0,0,0,.917-.291,1.122,1.122,0,0,0,.3-.831,1.034,1.034,0,0,0-.3-.8,1.272,1.272,0,0,0-.917-.292h-1.262Zm10.958.95a3.542,3.542,0,0,1-.043.582h-4.369a1.484,1.484,0,0,0,.453,1.014,1.4,1.4,0,0,0,.982.367,1.232,1.232,0,0,0,1.2-.723h1.63a2.749,2.749,0,0,1-.992,1.424,2.917,2.917,0,0,1-1.8.551,3.186,3.186,0,0,1-1.554-.378,2.778,2.778,0,0,1-1.068-1.09,3.675,3.675,0,0,1,0-3.247,2.635,2.635,0,0,1,1.057-1.079,3.162,3.162,0,0,1,1.564-.378,3.121,3.121,0,0,1,1.522.367,2.54,2.54,0,0,1,1.047,1.047A3.081,3.081,0,0,1,206.64,128.569Zm-1.565-.432a1.18,1.18,0,0,0-.421-.928,1.478,1.478,0,0,0-1-.356,1.38,1.38,0,0,0-.95.345,1.484,1.484,0,0,0-.463.939Zm10.089-2.514a2.373,2.373,0,0,1,1.77.68,2.516,2.516,0,0,1,.68,1.877l0,3.507H216.1v-3.3a1.472,1.472,0,0,0-.357-1.068,1.269,1.269,0,0,0-.971-.378,1.3,1.3,0,0,0-.981.378,1.472,1.472,0,0,0-.356,1.068l0,3.3H211.93v-3.3a1.481,1.481,0,0,0-.357-1.068,1.269,1.269,0,0,0-.971-.378,1.321,1.321,0,0,0-.993.378,1.476,1.476,0,0,0-.355,1.068v3.3h-1.51l0-5.978h1.511v.723a2.026,2.026,0,0,1,.744-.593,2.371,2.371,0,0,1,1.014-.216,2.563,2.563,0,0,1,1.252.3,2.048,2.048,0,0,1,.853.842,2.168,2.168,0,0,1,.841-.831A2.434,2.434,0,0,1,215.164,125.623Zm6.539,6.161a3.179,3.179,0,0,1-1.553-.378,2.835,2.835,0,0,1-1.091-1.09,3.294,3.294,0,0,1-.389-1.618,3.213,3.213,0,0,1,.4-1.618,2.8,2.8,0,0,1,1.11-1.079,3.341,3.341,0,0,1,3.129,0,2.728,2.728,0,0,1,1.1,1.079,3.139,3.139,0,0,1,.411,1.618,3.087,3.087,0,0,1-.42,1.618,2.861,2.861,0,0,1-1.122,1.09A3.263,3.263,0,0,1,221.7,131.784Zm0-1.317a1.571,1.571,0,0,0,.766-.194,1.475,1.475,0,0,0,.582-.6,2,2,0,0,0,.215-.971,1.767,1.767,0,0,0-.453-1.305,1.512,1.512,0,0,0-2.18,0,1.823,1.823,0,0,0-.431,1.305,1.893,1.893,0,0,0,.422,1.316A1.429,1.429,0,0,0,221.7,130.467Zm6.718-.172,1.508-4.586h1.608l-2.209,5.978h-1.834l-2.2-5.978h1.618Zm9.522-1.726a3.542,3.542,0,0,1-.043.582h-4.37a1.489,1.489,0,0,0,.454,1.014,1.4,1.4,0,0,0,.982.367,1.232,1.232,0,0,0,1.2-.723h1.629a2.744,2.744,0,0,1-.992,1.424,2.912,2.912,0,0,1-1.8.551,3.186,3.186,0,0,1-1.554-.378,2.779,2.779,0,0,1-1.068-1.09,3.675,3.675,0,0,1,0-3.247,2.635,2.635,0,0,1,1.057-1.079,3.162,3.162,0,0,1,1.564-.378,3.117,3.117,0,0,1,1.521.367,2.528,2.528,0,0,1,1.047,1.047A3.082,3.082,0,0,1,237.943,128.569Zm-1.565-.432a1.183,1.183,0,0,0-.421-.928,1.479,1.479,0,0,0-1-.356,1.378,1.378,0,0,0-.949.345,1.484,1.484,0,0,0-.463.939Zm2.279.539a3.5,3.5,0,0,1,.355-1.607A2.675,2.675,0,0,1,240,125.99a2.639,2.639,0,0,1,1.392-.378,2.5,2.5,0,0,1,1.111.259,2.187,2.187,0,0,1,.842.669V123.7h1.532l0,7.984h-1.532V130.8a2.046,2.046,0,0,1-.787.712,2.465,2.465,0,0,1-1.176.27,2.568,2.568,0,0,1-1.381-.389,2.758,2.758,0,0,1-.993-1.089A3.589,3.589,0,0,1,238.657,128.676Zm4.7.022a1.906,1.906,0,0,0-.216-.939,1.484,1.484,0,0,0-.583-.6,1.56,1.56,0,0,0-1.565-.011,1.572,1.572,0,0,0-.582.605,1.877,1.877,0,0,0-.215.927,2.008,2.008,0,0,0,.216.95,1.662,1.662,0,0,0,.583.615,1.51,1.51,0,0,0,.777.216,1.593,1.593,0,0,0,.787-.205,1.571,1.571,0,0,0,.583-.6A1.976,1.976,0,0,0,243.361,128.7Z" transform="translate(33.324 -8.303)"/><path class="m" d="M194.772,116.9h50.31v-2.7h-50.31Zm50.31,21.578h-50.31v2.7h50.31Zm-50.31,0a10.789,10.789,0,0,1-10.789-10.789h-2.7a13.486,13.486,0,0,0,13.486,13.487Zm61.1-10.789a10.789,10.789,0,0,1-10.789,10.789v2.7a13.486,13.486,0,0,0,13.486-13.487ZM245.082,116.9a10.79,10.79,0,0,1,10.789,10.789h2.7A13.486,13.486,0,0,0,245.082,114.2Zm-50.31-2.7a13.486,13.486,0,0,0-13.486,13.486h2.7A10.79,10.79,0,0,1,194.772,116.9Z" transform="translate(26.257 -8.682)"/></g></svg>